<?xml version="1.0" encoding="utf-8"?>
<!-- Generator: Adobe Illustrator 25.2.3, SVG Export Plug-In . SVG Version: 6.00 Build 0)  -->
<svg version="1.1" id="Livello_1" xmlns="http://www.w3.org/2000/svg" xmlns:xlink="http://www.w3.org/1999/xlink" x="0px" y="0px"
	 viewBox="0 0 341.62 94.21" style="enable-background:new 0 0 341.62 94.21;" xml:space="preserve">
<style type="text/css">
	.st0{fill:#FFFFFF;}
</style>
<path class="st0" d="M303.96,22.23c-0.21,0-0.42,0-0.62,0.01c-4.9-6.83-12.91-11.29-21.95-11.29c-9.04,0-17.06,4.47-21.96,11.32
	c-0.45-0.02-0.91-0.03-1.37-0.03c-14.89,0-27,12.11-27,27c0,14.89,12.11,27,27,27c0.46,0,0.92-0.01,1.37-0.03
	c4.9,6.85,12.92,11.32,21.96,11.32c9.03,0,17.05-4.46,21.95-11.29c0.2,0.01,0.41,0.01,0.62,0.01c14.89,0,27-12.1,27-27
	C330.96,34.34,318.85,22.23,303.96,22.23z M307.6,66.99c0.52-2.07,0.79-4.25,0.79-6.48c0-11.15-6.79-20.73-16.44-24.85
	c-3.07-1.31-6.42-2.06-9.94-2.14c-0.2-0.01-0.41-0.01-0.62-0.01c-0.44,0-0.86,0.06-1.26,0.19c-1.84,0.54-3.18,2.24-3.18,4.25
	c0,1.21,0.48,2.3,1.27,3.1c0.81,0.82,1.93,1.33,3.17,1.33c0.97,0,1.91,0.07,2.84,0.23c0.9,0.14,1.77,0.35,2.63,0.62
	c7.33,2.32,12.67,9.2,12.67,17.29c0,2.11-0.36,4.13-1.03,6.01c-1.03,2.94-2.8,5.54-5.09,7.56c-3.19,2.84-7.4,4.56-12.01,4.56
	c-4.72,0-9.03-1.81-12.26-4.79c-2.23-2.05-3.95-4.64-4.92-7.58c-1.92,0.7-3.99,1.08-6.15,1.08c-0.97,0-1.91-0.07-2.84-0.23
	c-8.66-1.36-15.3-8.87-15.3-17.91c0-9.03,6.64-16.55,15.3-17.91c-0.55,2.12-0.83,4.34-0.83,6.62c0,10.95,6.54,20.39,15.93,24.63
	c2.98,1.35,6.25,2.16,9.7,2.34c0.45,0.02,0.91,0.03,1.37,0.03c0.2,0,0.4-0.02,0.6-0.05c2.17-0.28,3.84-2.14,3.84-4.38
	c0-1.49-0.74-2.81-1.88-3.61c-0.73-0.52-1.6-0.82-2.55-0.82c-1.25,0-2.47-0.13-3.64-0.37c-0.85-0.17-1.69-0.41-2.5-0.7
	c-6.98-2.52-11.99-9.21-11.99-17.06c0-2.01,0.33-3.96,0.95-5.77c0.98-2.93,2.69-5.53,4.92-7.58c3.22-2.97,7.54-4.79,12.26-4.79
	c4.61,0,8.82,1.72,12.01,4.57c2.3,2.02,4.07,4.62,5.1,7.56c1.72-0.55,3.55-0.85,5.46-0.85c1.25,0,2.47,0.13,3.64,0.37
	c8.26,1.69,14.49,9.02,14.49,17.76C322.09,57.98,315.86,65.3,307.6,66.99z"/>
<g>
	<path class="st0" d="M215.9,33.44c-2.23,0-4.03,1.81-4.03,4.03v10.5c0,4.62-3.95,8.32-8.66,7.89c-4.12-0.39-7.17-4.07-7.18-8.2
		c0-0.06,0.01-0.13,0.01-0.19v-9.99c0-2.23-1.81-4.03-4.03-4.03c0,0,0,0,0,0s0,0,0,0h0c-0.83,0-1.61,0.25-2.25,0.69
		c-1.07,0.72-1.78,1.95-1.78,3.35v10.5c0,4.62-3.95,8.32-8.66,7.89c-4.12-0.39-7.18-4.08-7.18-8.22V37.46c0,0,0,0,0,0c0,0,0,0,0,0h0
		c0-2.22-1.8-4.02-4.03-4.02s-4.02,1.8-4.03,4.02h0c-0.76,10.31-9.36,18.41-19.85,18.4c-10.49,0.01-19.09-8.09-19.85-18.4
		c0-1.12-0.45-2.11-1.18-2.84c-0.46-0.46-1.03-0.8-1.65-1c-0.39-0.12-0.79-0.18-1.21-0.18c-0.12,0-0.24,0-0.36,0.01
		c-0.97,0.09-1.83,0.51-2.49,1.16c-0.73,0.73-1.18,1.73-1.18,2.84v7.7c0,1.15-0.18,2.28-0.52,3.33c-0.13,0.4-0.28,0.8-0.49,1.21
		c-0.09,0.21-0.18,0.39-0.28,0.58c-0.16,0.31-0.34,0.6-0.55,0.88c-0.37,0.58-0.8,1.12-1.31,1.59c-0.48,0.49-1.01,0.92-1.56,1.3
		c-0.01,0-0.01,0-0.01,0c-0.57,0.4-1.18,0.73-1.82,1c-1.28,0.55-2.69,0.85-4.17,0.85c-2.96,0-5.66-1.21-7.59-3.14
		c-1.95-1.94-3.16-4.63-3.16-7.59v-7.68v-0.01c0-0.79-0.24-1.52-0.63-2.14c-0.02-0.03-0.04-0.07-0.06-0.11
		c-0.01-0.02-0.03-0.03-0.04-0.05c-0.73-1.04-1.93-1.73-3.29-1.73h-0.01h0H90.8c-2.23,0-4.03,1.8-4.03,4.03v10.5
		c0,4.62-3.93,8.32-8.66,7.89c-4.11-0.39-7.13-4.05-7.16-8.16v-0.06c-0.04-2.3-0.6-4.47-1.55-6.42c-0.14-0.28-0.3-0.55-0.45-0.82
		c-0.11-0.2-0.21-0.41-0.33-0.6c-0.23-0.37-0.49-0.72-0.74-1.07c-0.06-0.08-0.11-0.17-0.18-0.26c-0.21-0.28-0.45-0.53-0.68-0.79
		c-0.13-0.14-0.24-0.3-0.37-0.44c-0.07-0.08-0.15-0.14-0.23-0.22c-0.3-0.31-0.61-0.62-0.94-0.9c-0.3-0.25-0.6-0.51-0.91-0.73
		c-0.01,0-0.01-0.01-0.03-0.03h0c0,0,0,0,0,0h-0.01c-0.05-0.04-0.11-0.07-0.16-0.11c-0.17-0.12-0.34-0.25-0.52-0.36c0,0,0,0,0,0.01
		c0,0,0,0,0,0c-0.19-0.15-0.38-0.27-0.58-0.39c-0.1-0.06-0.2-0.12-0.31-0.18c-0.34-0.21-0.7-0.4-1.07-0.58
		c-0.03-0.02-0.05-0.03-0.07-0.03c-0.33-0.18-0.69-0.33-1.05-0.46c-0.28-0.14-0.58-0.24-0.89-0.34c-0.39-0.14-0.77-0.26-1.16-0.35
		c-0.11-0.03-0.21-0.06-0.31-0.09c-0.36-0.07-0.7-0.15-1.06-0.22c-0.25-0.04-0.51-0.07-0.76-0.09c-0.28-0.04-0.58-0.07-0.88-0.09
		c-0.36-0.04-0.7-0.06-1.06-0.06h-2.09c-1.11,0-2.13,0.45-2.86,1.18c-0.73,0.74-1.18,1.74-1.18,2.86c0,2.23,1.81,4.03,4.04,4.03
		h2.42c4.62,0,8.32,3.93,7.89,8.67c-0.38,4.12-4.08,7.16-8.22,7.16h-6.14c-2.23,0-4.03,1.8-4.03,4.03c0,1.11,0.45,2.11,1.18,2.84
		c0.73,0.73,1.73,1.18,2.85,1.18h6.47c2.23,0,4.35-0.45,6.28-1.28c2.19-0.94,4.13-2.35,5.69-4.11c0,0,0,0,0,0
		c2.96,3.36,7.34,5.46,12.22,5.39c4.63-0.07,8.72-2.2,11.58-5.48c0.25-0.3,0.51-0.6,0.73-0.91c0.51,0.58,1.04,1.12,1.61,1.61
		c0.16,0.15,0.31,0.3,0.49,0.43c0.25,0.21,0.51,0.4,0.76,0.6c0.21,0.15,0.4,0.3,0.6,0.43c0.22,0.16,0.46,0.31,0.73,0.48
		c0.31,0.19,0.64,0.4,1,0.58c0.34,0.19,0.68,0.37,1.06,0.54c0.13,0.04,0.25,0.1,0.37,0.16c0.25,0.12,0.54,0.24,0.79,0.33
		c0.09,0.03,0.18,0.06,0.25,0.1c0.37,0.12,0.73,0.24,1.1,0.34c0.77,0.24,1.58,0.43,2.4,0.55c0.25,0.04,0.51,0.09,0.76,0.1
		c0.09,0.01,0.16,0.03,0.24,0.03c0.28,0.03,0.57,0.06,0.88,0.07c0.36,0.01,0.71,0.03,1.09,0.03s0.74-0.01,1.13-0.03
		c0.28-0.01,0.55-0.04,0.85-0.07c0.07,0,0.15-0.01,0.22-0.03c0.25-0.01,0.51-0.06,0.77-0.1c0.8-0.12,1.61-0.31,2.38-0.55
		c0.37-0.1,0.74-0.22,1.1-0.34c0.07-0.03,0.15-0.06,0.24-0.09c0.37-0.15,0.73-0.31,1.07-0.46c0.03-0.01,0.07-0.03,0.1-0.04
		c0.74-0.34,1.47-0.73,2.16-1.18c0.21-0.13,0.42-0.27,0.63-0.42c0.19-0.13,0.4-0.28,0.6-0.43c0.27-0.19,0.52-0.39,0.77-0.6
		c0.16-0.13,0.33-0.28,0.48-0.43c0.58-0.49,1.12-1.04,1.62-1.61c0.49-0.6,0.98-1.22,1.41-1.85c0.04-0.04,0.06-0.07,0.09-0.12
		c0.45-0.67,0.86-1.38,1.22-2.11c0.2,0.25,0.39,0.51,0.6,0.75c0.01,0.01,0.01,0.01,0.03,0.03c5.12,5.93,12.67,9.68,21.13,9.68h0.03
		h0.01h0.03c8.46,0,16-3.75,21.13-9.68c0,0,0,0,0,0c0.66,1.54,1.55,2.96,2.63,4.2c2.98,3.42,7.4,5.55,12.31,5.48
		c4.64-0.08,8.73-2.22,11.58-5.49c0,0,0.01,0.01,0.01,0.01c2.98,3.42,7.4,5.55,12.31,5.48c8.81-0.15,15.71-7.7,15.71-16.5v-9.99
		C219.93,35.24,218.12,33.44,215.9,33.44z"/>
	<path class="st0" d="M23.4,32.11c-1.87,0.43-3.11,2.22-3.11,4.13v16.98c0,6.76-3.36,12.72-8.51,16.31c-1.77,1.24-2.16,3.7-0.95,5.5
		v0c1.26,1.87,3.82,2.38,5.66,1.08c1.88-1.32,3.59-2.87,5.08-4.61c4.22-4.88,6.77-11.26,6.77-18.24V36.03c0-1.1-0.45-2.12-1.18-2.84
		C26.24,32.26,24.85,31.78,23.4,32.11z"/>
	<path class="st0" d="M36.4,22.19c-2.22,0-4.03,1.8-4.03,4.03v33.71c0,2.22,1.8,4.03,4.03,4.03c2.22,0,4.03-1.8,4.03-4.03V26.22
		C40.43,23.99,38.62,22.19,36.4,22.19z"/>
	
		<ellipse transform="matrix(0.7071 -0.7071 0.7071 0.7071 4.3515 63.5314)" class="st0" cx="78.86" cy="26.51" rx="4.91" ry="4.91"/>
	<path class="st0" d="M117.43,67.03c-2.71,0-4.91,2.2-4.91,4.91v0c0,2.71,2.2,4.91,4.91,4.91s4.91-2.2,4.91-4.91v0
		C122.33,69.23,120.14,67.03,117.43,67.03z"/>
	<path class="st0" d="M105.52,67.03L105.52,67.03c-2.71,0-4.91,2.2-4.91,4.91v0c0,2.71,2.2,4.91,4.91,4.91h0
		c2.71,0,4.91-2.2,4.91-4.91v0C110.42,69.23,108.23,67.03,105.52,67.03z"/>
	<path class="st0" d="M93.69,67.03c-2.71,0-4.91,2.2-4.91,4.91v0c0,2.71,2.2,4.91,4.91,4.91c2.71,0,4.91-2.2,4.91-4.91v0
		C98.59,69.23,96.4,67.03,93.69,67.03z"/>
</g>
</svg>
