<?xml version="1.0" encoding="utf-8"?>
<!-- Generator: Adobe Illustrator 25.2.3, SVG Export Plug-In . SVG Version: 6.00 Build 0)  -->
<svg version="1.1" id="Layer_1" xmlns="http://www.w3.org/2000/svg" xmlns:xlink="http://www.w3.org/1999/xlink" x="0px" y="0px"
	 viewBox="0 0 1062.7 329.5" style="enable-background:new 0 0 1062.7 329.5;" xml:space="preserve">
<style type="text/css">
	.st0{fill:#444B55;}
</style>
<path id="Subtraction_10" class="st0" d="M1062.2,329H0.6c1.7-11.6,4.4-23,8-34.2c3.7-11.4,8.2-22.5,13.4-33.3
	c10.9-22.1,24.2-43,39.7-62.2c15.4-19.3,32.4-37.4,50.8-53.9c8.8-8,18-15.7,27.4-22.9c9.1-7,18.3-13.6,27.5-19.7
	c36.8-24.1,76.9-42.8,119-55.6c42.2-12.9,85.8-20.4,129.8-22.2c9.1-0.4,18.6-0.6,28.1-0.6c14.5,0,29.3,0.5,45.2,1.4
	c14.2,0.8,28.9,2,45,3.6c30,3,60.3,7.1,89.6,11h0l0.1,0c29.3,3.9,59.6,8,89.5,11c16.1,1.6,30.8,2.8,44.9,3.6
	c15.9,0.9,30.6,1.4,45.1,1.4c36.4,0,69.6-2.9,101.7-8.8c26.8-5.1,53.3-11.8,79.3-20c22.7-7.1,46.6-15.4,77.5-27V329z"/>
</svg>
