<svg width="61" height="61" viewBox="0 0 61 61" fill="none" xmlns="http://www.w3.org/2000/svg">
<path d="M40.5999 17.7249C41.9667 16.358 41.9667 14.142 40.5999 12.7751C39.233 11.4083 37.017 11.4083 35.6501 12.7751L40.5999 17.7249ZM22.875 30.5L20.4001 28.0251L17.9253 30.5L20.4001 32.9749L22.875 30.5ZM35.6501 48.2249C37.017 49.5917 39.233 49.5917 40.5999 48.2249C41.9667 46.858 41.9667 44.642 40.5999 43.2751L35.6501 48.2249ZM35.6501 12.7751L20.4001 28.0251L25.3499 32.9749L40.5999 17.7249L35.6501 12.7751ZM20.4001 32.9749L35.6501 48.2249L40.5999 43.2751L25.3499 28.0251L20.4001 32.9749Z" fill="#FA9A1E"/>
</svg>
