<svg width="61" height="61" viewBox="0 0 61 61" fill="none" xmlns="http://www.w3.org/2000/svg">
<path d="M20.4001 43.2751C19.0333 44.642 19.0333 46.858 20.4001 48.2249C21.767 49.5917 23.983 49.5917 25.3499 48.2249L20.4001 43.2751ZM38.125 30.5L40.5999 32.9749L43.0747 30.5L40.5999 28.0251L38.125 30.5ZM25.3499 12.7751C23.983 11.4083 21.767 11.4083 20.4001 12.7751C19.0333 14.142 19.0333 16.358 20.4001 17.7249L25.3499 12.7751ZM25.3499 48.2249L40.5999 32.9749L35.6501 28.0251L20.4001 43.2751L25.3499 48.2249ZM40.5999 28.0251L25.3499 12.7751L20.4001 17.7249L35.6501 32.9749L40.5999 28.0251Z" fill="#FA9A1E"/>
</svg>
