<svg xmlns="http://www.w3.org/2000/svg" xmlns:xlink="http://www.w3.org/1999/xlink" width="45.318" height="44.355" viewBox="0 0 45.318 44.355">
  <defs>
    <clipPath id="clip-path">
      <rect id="Rectangle_8" data-name="Rectangle 8" width="34.138" height="31.507" fill="#f29224"/>
    </clipPath>
  </defs>
  <g id="Group_8" data-name="Group 8" transform="translate(43.754) rotate(30)">
    <g id="Group_9" data-name="Group 9" transform="translate(-24.249 14)" clip-path="url(#clip-path)">
      <path id="Path_28" data-name="Path 28" d="M48.247,83.107c3.4.006,5.322,2.5,5.967,5.578.56,2.677,2.278,4.276,4.077,6.18,1.3,1.378,2.516,3.5,1.767,5.444a4.463,4.463,0,0,1-4.129,2.466,35.029,35.029,0,0,1-4.506-.563,29.865,29.865,0,0,0-4.709-.105c-2.475.142-5.176,1.213-7.6.376a3.487,3.487,0,0,1-2.447-4.352c.4-1.884,1.846-3.16,3.13-4.48a10.652,10.652,0,0,0,2.962-5.493c.559-2.893,2.334-4.633,4.909-5,.257-.037.518-.041.576-.046" transform="translate(-31.361 -71.292)" fill="#f29224"/>
      <path id="Path_29" data-name="Path 29" d="M54.984,6.575a5.635,5.635,0,0,1-.9,3.229,3.861,3.861,0,0,1-5.163,1.355,6.877,6.877,0,0,1-2.66-9.046A3.925,3.925,0,0,1,52.063.8a6.944,6.944,0,0,1,2.921,5.773" transform="translate(-39.027 -0.036)" fill="#f29224"/>
      <path id="Path_30" data-name="Path 30" d="M127.65,6.471a6.963,6.963,0,0,1,2.288-5.206,4.07,4.07,0,0,1,6.971,2.081,6.812,6.812,0,0,1-1.6,6.539,4.2,4.2,0,0,1-4.632,1.518c-1.918-.623-2.684-2.184-2.973-4.048-.043-.279-.036-.566-.055-.884" transform="translate(-109.503 0)" fill="#f29224"/>
      <path id="Path_31" data-name="Path 31" d="M181.6,75.716a7.241,7.241,0,0,1-3.339,5.994,4,4,0,0,1-6.167-2.566,7.111,7.111,0,0,1,2.758-7.323,4.1,4.1,0,0,1,6.106,1.244,5.54,5.54,0,0,1,.642,2.651" transform="translate(-147.466 -60.89)" fill="#f29224"/>
      <path id="Path_32" data-name="Path 32" d="M9.7,77.357q0,.106-.013.212c-.231,2.969-3.039,5.513-6.016,4.059A6.98,6.98,0,0,1,.312,73.511a3.973,3.973,0,0,1,5.918-2.279A6.85,6.85,0,0,1,9.7,77.357" transform="translate(0 -60.605)" fill="#f29224"/>
    </g>
  </g>
</svg>
