<svg id="Layer_1" data-name="Layer 1" xmlns="http://www.w3.org/2000/svg" viewBox="0 0 522.24 412.2"><defs><style>.cls-1{fill:#fff;}.cls-2{fill:#e45725;}.cls-3{fill:#f89a22;}.cls-4{fill:#474747;}</style></defs><path class="cls-1" d="M532.27,877.07c157.55-7.33,317.37-7.39,474.92,0-157.55,7.39-317.37,7.34-474.92,0Z" transform="translate(-484.95 -540.16)"/><path class="cls-2" d="M865.77,789.62a14.78,14.78,0,1,1-8.8,14.26l7.91-3.52-3-8.2a14.58,14.58,0,0,1,3.92-2.54M857.06,770a36.19,36.19,0,0,0-16.83,15.25c.4-.09.77-.2,1.13-.3,5.07-1.4,10-2.77,14.82-4.21l-17.61,7.83A36.27,36.27,0,1,0,857.06,770Z" transform="translate(-484.95 -540.16)"/><path class="cls-2" d="M797.54,830.28a14.82,14.82,0,1,1-25.28,11.24l25.28-11.24m1-23.89-44.67,19.84a36.26,36.26,0,1,0,44.67-19.84Z" transform="translate(-484.95 -540.16)"/><path class="cls-3" d="M819.43,582.66c8.49,19.1,30.59,27.83,49.35,19.49a37,37,0,0,0,21.4-27.76l-26.75-14.28Z" transform="translate(-484.95 -540.16)"/><path class="cls-3" d="M874.72,546.3a13.39,13.39,0,0,0-16.7-5L559,674.22,685.75,838.78a56.22,56.22,0,0,0,67.38,17.1l169-75.07a9.88,9.88,0,0,0,5.55-11.61l-7.77-29a9.94,9.94,0,0,0-13.78-6.39c-21,9.67-44.33,17.9-71.73,25.33-34.6,9.38-82,22.24-113.38,4.71-3.64-2-8.41-5.38-10.39-9.72-2-4.5-1.06-7.27-.14-9,2.2-4.14,7.56-7.4,13.6-8.39,6.38-1,13.46-.46,20.94.14,1.76.13,3.52.28,5.27.39a251.55,251.55,0,0,0,93-11.16l1.7-.52c23.36-7.36,55.34-17.4,68.6-45.05,5.3-11,7-24.47,4.78-38.87a160.59,160.59,0,0,0-12.46-40.91C896.89,580.62,885,562.25,874.72,546.3Zm17.07,99.39c1,6.3,1.32,15.46-2.43,23.25-8.23,17.18-32.76,24.88-52.5,31.07l-1.7.52a227.91,227.91,0,0,1-83.09,10l-5-.38c-8.73-.69-17.75-1.4-27.28.13-14.46,2.29-26.76,10.57-33,22.16-5.43,10.1-5.66,21.72-.64,32.75,4,8.77,11.3,16.21,21.7,22,40.57,22.67,93.4,8.64,132.34-1.91.4-.09.77-.2,1.13-.3,5.07-1.4,10-2.77,14.82-4.21L742.25,831.39a29.31,29.31,0,0,1-35.27-9L601,684.88,858.4,570.48C873,593.37,887.7,618.74,891.79,645.69Z" transform="translate(-484.95 -540.16)"/><path class="cls-3" d="M585.66,702.6,545,694.22a11.38,11.38,0,0,0-12.92,7l-6.33,16.48a11.61,11.61,0,0,1-15,6.66l-18.36-7.06a11.61,11.61,0,0,1-6.66-15l14.69-38.17a26.83,26.83,0,0,1,30.47-16.65l63.42,13.07Z" transform="translate(-484.95 -540.16)"/><path class="cls-4" d="M783.2,648.17a29.66,29.66,0,1,1-27.58-17.6,6.63,6.63,0,0,0-.59,1.23,11.19,11.19,0,1,0,20.89,8,9.77,9.77,0,0,0,.41-1.33A29.4,29.4,0,0,1,783.2,648.17Z" transform="translate(-484.95 -540.16)"/><path class="cls-3" d="M718,702.57C699.4,706.77,680.36,714,675.69,734c-1.79,6.08-2.63,12.78-3.69,19.93-16.41-32.87,11.91-63.56,46-51.4Z" transform="translate(-484.95 -540.16)"/><path class="cls-1" d="M586.57,909.69H574.42a4.08,4.08,0,0,1,0-8.15h33.24a4.08,4.08,0,0,1,0,8.15H595.44v37.88a4.44,4.44,0,0,1-8.87,0Z" transform="translate(-484.95 -540.16)"/><path class="cls-1" d="M618.09,903.69c0-2.58,2.15-4.22,4.93-4.22s4.94,1.64,4.94,4.22v.43c0,2.57-2.15,4.28-4.94,4.28s-4.93-1.71-4.93-4.28Zm.65,14.08a4.27,4.27,0,0,1,4.28-4.36,4.33,4.33,0,0,1,4.36,4.36v29.87a4.32,4.32,0,0,1-8.64,0Z" transform="translate(-484.95 -540.16)"/><path class="cls-1" d="M675.77,947.64a4.33,4.33,0,0,1-8.65,0v-2.35c-2.78,3.93-6.72,7.07-12.86,7.07-8.87,0-17.51-7.07-17.51-19.58v-.15c0-12.5,8.5-19.58,17.51-19.58,6.22,0,10.15,3.07,12.86,6.65V903.33a4.33,4.33,0,0,1,8.65,0Zm-30.3-15v.15c0,7.29,5,12.08,10.86,12.08s10.94-4.86,10.94-12.08v-.15c0-7.29-5.15-12.07-10.94-12.07S645.47,925.13,645.47,932.63Z" transform="translate(-484.95 -540.16)"/><path class="cls-1" d="M684.13,940.71v-.14c0-8.15,6.36-12.15,15.58-12.15A31.5,31.5,0,0,1,709.86,930v-.93c0-5.36-3.29-8.22-9.36-8.22a22.34,22.34,0,0,0-8.36,1.5,5,5,0,0,1-1.36.21,3.6,3.6,0,0,1-3.65-3.57,3.77,3.77,0,0,1,2.36-3.43,32.34,32.34,0,0,1,12.15-2.21c5.65,0,9.87,1.5,12.51,4.21,2.79,2.72,4.08,6.72,4.08,11.65v18.59a4.12,4.12,0,0,1-4.22,4.14c-2.5,0-4.22-1.71-4.22-3.64v-1.43a15.33,15.33,0,0,1-12.29,5.5C690.42,952.36,684.13,948.29,684.13,940.71ZM710,938v-2.57a24,24,0,0,0-8.58-1.5c-5.58,0-8.87,2.36-8.87,6.29v.14c0,3.65,3.22,5.72,7.37,5.72C705.65,946.07,710,942.78,710,938Z" transform="translate(-484.95 -540.16)"/><path class="cls-1" d="M784.41,950.93l-5.22-5.29c-4.22,4.08-9.29,6.65-15.44,6.65-9.36,0-16.37-5.65-16.37-14.3v-.14c0-6.43,3.79-11.08,10.65-14-2.86-3.64-4.14-6.79-4.14-10.43v-.15c0-6.72,5.43-12.58,14.36-12.58,7.94,0,13.3,5.36,13.3,12.08v.15c0,6.57-4.36,10.5-10.94,13l8.51,8.65a56,56,0,0,0,4.14-7.14,3.73,3.73,0,0,1,3.29-2.08,3.81,3.81,0,0,1,3.79,3.72,4.5,4.5,0,0,1-.5,1.93,83.32,83.32,0,0,1-5.43,8.79l5.57,5.58a3.93,3.93,0,0,1,1.36,3,3.82,3.82,0,0,1-3.86,3.93A4,4,0,0,1,784.41,950.93Zm-10.29-10.36L763,929.2c-4.71,2.07-6.71,5.15-6.71,8.37v.14c0,4.22,3.5,7.29,8.36,7.29C768.11,945,771.25,943.28,774.12,940.57Zm-.36-27.16v-.15a5.4,5.4,0,0,0-5.65-5.64,5.74,5.74,0,0,0-6,6v.14c0,2.51,1,4.36,3.79,7.44C771,919.34,773.76,917.05,773.76,913.41Z" transform="translate(-484.95 -540.16)"/><path class="cls-1" d="M820.93,946a4.16,4.16,0,0,1,5-6.65,21.7,21.7,0,0,0,14,5.15c5.43,0,8.86-2.57,8.86-6.29v-.14c0-3.58-2-5.51-11.29-7.65-10.65-2.58-16.66-5.72-16.66-14.94v-.14c0-8.58,7.15-14.51,17.09-14.51a27.56,27.56,0,0,1,15.87,4.64,4,4,0,0,1,1.92,3.51,4.08,4.08,0,0,1-4.14,4.07,4.26,4.26,0,0,1-2.29-.64,20.73,20.73,0,0,0-11.5-3.79c-5.15,0-8.15,2.64-8.15,5.93v.14c0,3.86,2.28,5.58,11.93,7.86,10.58,2.58,16,6.37,16,14.66v.14c0,9.36-7.36,14.94-17.87,14.94A31.09,31.09,0,0,1,820.93,946Z" transform="translate(-484.95 -540.16)"/><path class="cls-1" d="M867,903.33a4.25,4.25,0,0,1,4.28-4.29,4.32,4.32,0,0,1,4.36,4.29v16.3c2.43-3.51,5.94-6.58,11.8-6.58,8.5,0,13.44,5.72,13.44,14.44v20.15a4.21,4.21,0,0,1-4.29,4.29,4.27,4.27,0,0,1-4.36-4.29V930.13c0-5.86-2.93-9.22-8.08-9.22s-8.51,3.5-8.51,9.36v17.37a4.32,4.32,0,0,1-8.64,0Z" transform="translate(-484.95 -540.16)"/><path class="cls-1" d="M911.13,903.69c0-2.58,2.14-4.22,4.93-4.22s4.93,1.64,4.93,4.22v.43c0,2.57-2.14,4.28-4.93,4.28s-4.93-1.71-4.93-4.28Zm.64,14.08a4.27,4.27,0,0,1,4.29-4.36,4.33,4.33,0,0,1,4.36,4.36v29.87a4.33,4.33,0,0,1-8.65,0Z" transform="translate(-484.95 -540.16)"/><path class="cls-1" d="M932.21,903.33A4.26,4.26,0,0,1,936.5,899a4.32,4.32,0,0,1,4.36,4.29v44.31a4.33,4.33,0,0,1-8.65,0Z" transform="translate(-484.95 -540.16)"/><path class="cls-1" d="M949.65,940.71v-.14c0-8.15,6.36-12.15,15.58-12.15A31.5,31.5,0,0,1,975.38,930v-.93c0-5.36-3.29-8.22-9.36-8.22a22.43,22.43,0,0,0-8.37,1.5,4.89,4.89,0,0,1-1.35.21,3.6,3.6,0,0,1-3.65-3.57,3.77,3.77,0,0,1,2.36-3.43,32.3,32.3,0,0,1,12.15-2.21c5.65,0,9.86,1.5,12.51,4.21s4.07,6.72,4.07,11.65v18.59a4.12,4.12,0,0,1-4.22,4.14c-2.5,0-4.21-1.71-4.21-3.64v-1.43a15.35,15.35,0,0,1-12.3,5.5C955.94,952.36,949.65,948.29,949.65,940.71ZM975.52,938v-2.57a23.88,23.88,0,0,0-8.58-1.5c-5.57,0-8.86,2.36-8.86,6.29v.14c0,3.65,3.22,5.72,7.36,5.72C971.16,946.07,975.52,942.78,975.52,938Z" transform="translate(-484.95 -540.16)"/></svg>