<svg xmlns="http://www.w3.org/2000/svg" xmlns:xlink="http://www.w3.org/1999/xlink" width="38" height="38" viewBox="0 0 38 38">
  <defs>
    <clipPath id="clip-path">
      <rect id="Rectangle_48" data-name="Rectangle 48" width="18.638" height="5.506" fill="#fff"/>
    </clipPath>
  </defs>
  <g id="Group_102" data-name="Group 102" transform="translate(-140 -106)">
    <circle id="Ellipse_3" data-name="Ellipse 3" cx="19" cy="19" r="19" transform="translate(140 106)" fill="#f29224"/>
    <g id="Group_97" data-name="Group 97" transform="translate(150.346 115.11)">
      <g id="Group_100" data-name="Group 100" transform="translate(0 0)">
        <g id="Group_97-2" data-name="Group 97">
          <g id="Group_101" data-name="Group 101">
            <path id="Path_275" data-name="Path 275" d="M6,20.606a1.606,1.606,0,1,1,1.606,1.606A1.606,1.606,0,0,1,6,20.606" transform="translate(-2.732 -2.712)" fill="#fff"/>
            <path id="Path_276" data-name="Path 276" d="M14,20.606a1.606,1.606,0,1,1,1.606,1.606A1.606,1.606,0,0,1,14,20.606" transform="translate(-3.391 -2.712)" fill="#fff"/>
            <g id="Group_95" data-name="Group 95" opacity="0.4" style="isolation: isolate">
              <g id="Group_94" data-name="Group 94">
                <g id="Group_93" data-name="Group 93" clip-path="url(#clip-path)">
                  <path id="Path_277" data-name="Path 277" d="M17.779,3.632a1.009,1.009,0,0,1,1.013-1.006h1.6a.688.688,0,0,0,0-1.376H18.765a2.4,2.4,0,0,0-1.753.771,2.492,2.492,0,0,0-.56,1.11H5.193A2.708,2.708,0,0,0,2.449,6.077a.734.734,0,0,0,.734.679H17.232l.071,0a.728.728,0,0,0,.663-.786l-.184-2.248c0-.028,0-.058,0-.086" transform="translate(-2.439 -1.25)" fill="#fff"/>
                </g>
              </g>
            </g>
            <path id="Path_278" data-name="Path 278" d="M3.352,8.753A.718.718,0,0,0,2.7,9.53L3,13.815a2.753,2.753,0,0,0,2.689,2.505H15.9c.072,0,.143,0,.215-.009a2.686,2.686,0,0,0,2.456-2.9l-.33-3.992a.734.734,0,0,0-.734-.67H3.425l-.072,0" transform="translate(-2.46 -1.868)" fill="#fff"/>
          </g>
        </g>
      </g>
    </g>
  </g>
</svg>
