<svg xmlns="http://www.w3.org/2000/svg" width="23.47" height="23.78" viewBox="0 0 23.47 23.78">
  <g id="vuesax_linear_bag-cross" data-name="vuesax/linear/bag-cross" transform="translate(0.75 1.061)">
    <g id="bag-cross" transform="translate(0)">
      <path id="Vector" d="M3.021,3.021,0,0" transform="translate(9.491 13.852)" fill="none" stroke="#f29224" stroke-linecap="round" stroke-linejoin="round" stroke-width="1.5"/>
      <path id="Vector-2" data-name="Vector" d="M3.021,0,0,3.021" transform="translate(9.458 13.885)" fill="none" stroke="#f29224" stroke-linecap="round" stroke-linejoin="round" stroke-width="1.5"/>
      <path id="Vector-3" data-name="Vector" d="M3.976,0,0,3.987" transform="translate(3.504)" fill="none" stroke="#f29224" stroke-linecap="round" stroke-linejoin="round" stroke-width="1.5"/>
      <path id="Vector-4" data-name="Vector" d="M0,0,3.976,3.987" transform="translate(14.489)" fill="none" stroke="#f29224" stroke-linecap="round" stroke-linejoin="round" stroke-width="1.5"/>
      <path id="Vector-5" data-name="Vector" d="M0,2.2C0,.165,1.087,0,2.439,0H19.531c1.351,0,2.439.165,2.439,2.2,0,2.362-1.087,2.2-2.439,2.2H2.439C1.087,4.394,0,4.559,0,2.2Z" transform="translate(0 4.229)" fill="none" stroke="#f29224" stroke-width="1.5"/>
      <path id="Vector-6" data-name="Vector" d="M0,0,1.549,9.491c.352,2.131,1.2,3.691,4.339,3.691h6.624c3.416,0,3.922-1.494,4.317-3.559L18.674,0" transform="translate(1.648 8.788)" fill="none" stroke="#f29224" stroke-linecap="round" stroke-width="1.5"/>
    </g>
  </g>
</svg>
