<svg xmlns="http://www.w3.org/2000/svg" width="346.042" height="356.982" viewBox="0 0 346.042 356.982">
  <g id="Group_18" data-name="Group 18" transform="translate(-1379.073 -517.177)" opacity="0.56">
    <g id="Group_83" data-name="Group 83" transform="translate(1379.073 517.177)">
      <path id="Path_152" data-name="Path 152" d="M276.944,146.126c7.626-8.594,5.659-19.049-.665-27.61-5.5-7.436-5.679-15.364-6.442-24.188-.546-6.389-3.185-14.226-9.771-16.7-5.527-2.073-11.693.842-15.509,4.882-3.507,3.711-5.725,8.521-8.712,12.64a101.365,101.365,0,0,1-10.318,12.127c-5.929,5.929-14.707,10.344-18.036,18.332-2.75,6.606-.743,12.43,5.488,15.97,5.665,3.218,12.127,2.441,18.352,2.165a36.039,36.039,0,0,1,20.53,4.876c8.561,5.093,16.944,4.521,23.675-1.145a18.3,18.3,0,0,0,1.408-1.349" transform="translate(-206.286 -14.939)" fill="#dcdcdc"/>
      <path id="Path_153" data-name="Path 153" d="M240.612,93.982A19.034,19.034,0,0,0,230.433,89,13.055,13.055,0,0,0,215.4,98.989c-2.928,11.239,5.468,24.708,16.858,27.057,8.219,1.691,15.082-3.224,16.365-11.706,1.073-7.113-2.066-15.095-8.008-20.359" transform="translate(-158.721 51.418)" fill="#dcdcdc"/>
      <path id="Path_154" data-name="Path 154" d="M225.32,111.711c5.238,4.4,11.3,6.712,18.293,5.929,11.759-1.323,17.01-12.436,10.416-22.28a23.024,23.024,0,0,0-20.1-10.666c-6.225.013-11.581,2.2-14.252,8.284-2.737,6.244-.52,11.686,3.533,16.608.612.737,1.349,1.362,2.112,2.125" transform="translate(-138.33 28.313)" fill="#dcdcdc"/>
      <path id="Path_155" data-name="Path 155" d="M249.554,84.892a24.492,24.492,0,0,0-22.642-5.047c-9.692,3.027-13.015,12.89-7.389,21.339,5.073,7.62,15.759,11.732,24.688,9.508,8.245-2.06,13.634-9.87,10.594-18.22a18.765,18.765,0,0,0-5.251-7.58" transform="translate(-147.706 -4.036)" fill="#dcdcdc"/>
      <path id="Path_156" data-name="Path 156" d="M233.919,91.961c-.184-.151-.375-.3-.566-.447C225.339,85.427,212.6,86.8,209.58,97.58c-2.856,10.193,3.172,22.655,12.936,26.735,8.58,3.593,16.983-.737,19.063-9.818a23.158,23.158,0,0,0-7.659-22.537" transform="translate(-191.877 46.266)" fill="#dcdcdc"/>
      <path id="Path_157" data-name="Path 157" d="M306.385,113.545c.638-11.469-7.4-18.444-17.681-21.214-8.929-2.408-14-8.515-20.076-14.95-4.4-4.665-11.338-9.166-18.036-7.008-5.619,1.8-8.64,7.929-9.12,13.463-.441,5.086.809,10.232,1.033,15.318a101.21,101.21,0,0,1-.546,15.911c-.954,8.33-5.093,17.24-2.731,25.57,1.948,6.889,7.139,10.2,14.219,9.1,6.435-1,11.015-5.626,15.72-9.706a36.056,36.056,0,0,1,19.115-8.942c9.87-1.329,16.088-6.988,17.839-15.608.171-.862.237-1.744.263-1.935" transform="translate(-26.472 -54.699)" fill="#dcdcdc"/>
      <path id="Path_158" data-name="Path 158" d="M266.693,77.138a19.1,19.1,0,0,0-11.074,2.421,13.061,13.061,0,0,0-5.567,17.174c4.685,10.62,19.635,15.957,30.025,10.719,7.482-3.783,9.811-11.9,5.541-19.345-3.573-6.238-11-10.535-18.924-10.969" transform="translate(30.847 -14.14)" fill="#dcdcdc"/>
      <path id="Path_159" data-name="Path 159" d="M265.647,103.033c6.837.191,13.022-1.763,18.016-6.725,8.39-8.344,5.593-20.319-5.685-23.932A23.03,23.03,0,0,0,255.6,76.522c-4.869,3.876-7.712,8.916-6.021,15.345,1.737,6.593,6.856,9.475,13.094,10.811.934.2,1.9.23,2.974.355" transform="translate(32.551 -47.419)" fill="#dcdcdc"/>
      <path id="Path_160" data-name="Path 160" d="M267.825,67.552a24.478,24.478,0,0,0-20.879,10.12c-5.718,8.4-2.191,18.181,7.475,21.313,8.705,2.816,19.635-.605,25.248-7.9,5.178-6.738,4.54-16.207-3.027-20.852a18.673,18.673,0,0,0-8.817-2.678" transform="translate(5.244 -67.519)" fill="#dcdcdc"/>
      <path id="Path_161" data-name="Path 161" d="M260.229,80.005c-.237-.007-.48,0-.717,0-10.068.211-19.194,9.2-14.858,19.53,4.1,9.765,16.562,15.779,26.748,12.9,8.955-2.52,12.844-11.134,8.83-19.536a23.146,23.146,0,0,0-20-12.9" transform="translate(1.634 2.14)" fill="#dcdcdc"/>
      <path id="Path_162" data-name="Path 162" d="M308.641,175.6c9.008-7.126,8.9-17.766,4.165-27.3-4.113-8.278-2.9-16.121-2.106-24.945.572-6.383-.651-14.562-6.705-18.148-5.08-3.007-11.66-1.211-16.128,2.092-4.1,3.04-7.12,7.389-10.785,10.93A100.64,100.64,0,0,1,264.8,128.362c-6.87,4.8-16.286,7.613-20.957,14.9-3.869,6.027-2.908,12.107,2.612,16.68,5.008,4.159,11.509,4.527,17.687,5.343a36.036,36.036,0,0,1,19.358,8.383c7.541,6.514,15.9,7.422,23.511,3.02.757-.441,1.461-.974,1.625-1.086" transform="translate(-9.765 134.222)" fill="#dcdcdc"/>
      <path id="Path_163" data-name="Path 163" d="M276.259,123.352a19.013,19.013,0,0,0-9.153-6.685,13.055,13.055,0,0,0-16.549,7.205c-4.85,10.554,1.059,25.287,11.87,29.591,7.791,3.1,15.417-.539,18.161-8.666,2.3-6.81.6-15.22-4.33-21.445" transform="translate(31.191 202.421)" fill="#dcdcdc"/>
      <path id="Path_164" data-name="Path 164" d="M257.845,137.945c4.389,5.244,9.949,8.587,16.97,9.034,11.818.757,18.931-9.271,14.16-20.115a23.043,23.043,0,0,0-17.937-14.016c-6.126-1.079-11.785.138-15.476,5.665-3.79,5.665-2.553,11.416.579,16.97.467.829,1.086,1.579,1.7,2.461" transform="translate(55.566 183.426)" fill="#dcdcdc"/>
      <path id="Path_165" data-name="Path 165" d="M286.4,115.606a24.46,24.46,0,0,0-21.411-8.923c-10.074,1.283-15.068,10.41-11.009,19.721,3.665,8.383,13.469,14.305,22.655,13.667,8.475-.586,15.141-7.33,13.608-16.082a18.713,18.713,0,0,0-3.843-8.383" transform="translate(51.98 150.111)" fill="#dcdcdc"/>
      <path id="Path_166" data-name="Path 166" d="M270.072,120.15c-.158-.184-.323-.362-.487-.54-6.817-7.4-19.609-8.278-24.471,1.816-4.593,9.541-.836,22.859,8.067,28.59,7.824,5.027,16.852,2.237,20.49-6.337a23.185,23.185,0,0,0-3.6-23.53" transform="translate(-0.602 191.595)" fill="#dcdcdc"/>
    </g>
  </g>
</svg>
