<svg xmlns="http://www.w3.org/2000/svg" width="149.107" height="149.107" viewBox="0 0 149.107 149.107">
  <g id="vuesax_bulk_heart-circle" data-name="vuesax/bulk/heart-circle" transform="translate(33.228) rotate(16)">
    <g id="heart-circle" transform="translate(0 0)">
      <path id="Vector" d="M0,0H120.549V120.549H0Z" fill="none" opacity="0"/>
      <path id="Vector-2" data-name="Vector" d="M100.457,50.229A50.229,50.229,0,1,1,50.229,0,50.229,50.229,0,0,1,100.457,50.229Z" transform="translate(10.046 10.046)" fill="#fc613d"/>
      <path id="Vector-3" data-name="Vector" d="M28.781,48.019a6.376,6.376,0,0,1-3.365,0C17.58,45.357,0,34.155,0,15.169A15.044,15.044,0,0,1,27.123,6.078a15.044,15.044,0,0,1,27.123,9.091C54.247,34.155,36.667,45.357,28.781,48.019Z" transform="translate(33.151 37.37)" fill="#fff"/>
    </g>
  </g>
</svg>
