<svg xmlns="http://www.w3.org/2000/svg" width="90.696" height="90.696" viewBox="0 0 90.696 90.696">
  <g id="Group_81" data-name="Group 81" transform="translate(-210.436 -275.126)">
    <ellipse id="Ellipse_1" data-name="Ellipse 1" cx="37.409" cy="37.409" rx="37.409" ry="37.409" transform="translate(210.436 293.226) rotate(-14)" fill="#ad84a1"/>
    <g id="vuesax_bulk_like" data-name="vuesax/bulk/like" transform="translate(225.675 290.414)">
      <g id="like" transform="translate(0 11.969) rotate(-14)">
        <path id="Vector" d="M29.931,16.007a4.589,4.589,0,0,0-3.855-1.814H17.625a1.846,1.846,0,0,1-1.422-.639,1.945,1.945,0,0,1-.433-1.587l1.051-6.761A4.391,4.391,0,0,0,8.946,1.824L.247,14.749,0,15.162V33.384l.309.309,6.535,5.05a6.791,6.791,0,0,0,4.205,1.34h8.039a6.584,6.584,0,0,0,6.164-4.618l5.071-15.44A4.29,4.29,0,0,0,29.931,16.007Z" transform="translate(14.698 4.669)" fill="#fff" opacity="0.4"/>
        <path id="Vector-2" data-name="Vector" d="M6.617,0H4.494C1.3,0,0,1.237,0,4.288V25.025c0,3.051,1.3,4.288,4.494,4.288H6.617c3.2,0,4.494-1.237,4.494-4.288V4.288C11.111,1.237,9.812,0,6.617,0Z" transform="translate(4.123 13.152)" fill="#fff"/>
        <path id="Vector-3" data-name="Vector" d="M0,0H49.473V49.473H0Z" fill="none" opacity="0"/>
      </g>
    </g>
  </g>
</svg>
