<svg id="Layer_1" data-name="Layer 1" xmlns="http://www.w3.org/2000/svg" xmlns:xlink="http://www.w3.org/1999/xlink" viewBox="0 0 304.72 191.03"><defs><style>.cls-1{fill:none;}.cls-2{clip-path:url(#clip-path);}.cls-3{fill:#82aa88;}.cls-4{fill:#404040;}.cls-5{isolation:isolate;}.cls-6{fill:#fff;}</style><clipPath id="clip-path" transform="translate(-8.56 -6.53)"><rect class="cls-1" x="10" y="20.18" width="301.66" height="163.68" transform="translate(-12.62 23.35) rotate(-7.99)"/></clipPath></defs><g id="Group_91" data-name="Group 91"><g id="Group_32" data-name="Group 32"><g class="cls-2"><g id="Group_76" data-name="Group 76"><g id="Path_265" data-name="Path 265"><path class="cls-3" d="M130,141.38l71.36-10a37.48,37.48,0,0,1,27.76,7.18l15.44,11.64a41.74,41.74,0,1,0,50.24-66.67l-.35-.25.27-.34A41.74,41.74,0,0,0,228,32.67L216.39,48.11a37.52,37.52,0,0,1-24.7,14.55l-71.36,10A37.47,37.47,0,0,1,92.57,65.5L77.13,53.85a41.74,41.74,0,0,0-50.25,66.67l.35.26-.26.34a41.74,41.74,0,0,0,66.66,50.25l11.64-15.44A37.44,37.44,0,0,1,130,141.38" transform="translate(-8.56 -6.53)"/></g><g id="Path_266" data-name="Path 266"><path class="cls-4" d="M64.46,197.56A42.72,42.72,0,0,1,28,132.66,42.74,42.74,0,0,1,73.77,60.48L90.18,70.73a36.18,36.18,0,0,0,27.52,4.61l70.22-16.2a36.21,36.21,0,0,0,22.71-16.2l10.25-16.4a42.74,42.74,0,0,1,77.84,13.05,42.4,42.4,0,0,1-5.06,31.78,42.74,42.74,0,0,1-45.78,72.18l-16.4-10.25A36.22,36.22,0,0,0,204,128.69l-70.22,16.2-.22-1,.22,1A36.23,36.23,0,0,0,111,161.09l-10.25,16.4A42.74,42.74,0,0,1,64.46,197.56ZM51.33,56.09a40.73,40.73,0,0,0-21.79,75.19l.35.21a1,1,0,0,1,.46.63,1,1,0,0,1-.14.77l-.23.36a40.74,40.74,0,0,0,69.1,43.18L109.33,160a38.19,38.19,0,0,1,24-17.09l70.22-16.19a38.13,38.13,0,0,1,29,4.86l16.4,10.25a40.74,40.74,0,0,0,43.18-69.1l-.35-.21a1,1,0,0,1-.46-.64,1,1,0,0,1,.14-.77l.23-.36a40.74,40.74,0,0,0-69.1-43.17L212.33,44a38.21,38.21,0,0,1-24,17.09l-70.22,16.2a38.22,38.22,0,0,1-29-4.86L72.72,62.18A40.49,40.49,0,0,0,51.33,56.09Z" transform="translate(-8.56 -6.53)"/></g><g id="Path_267" data-name="Path 267"><path class="cls-3" d="M93.63,171.37l11.64-15.44A37.42,37.42,0,0,1,130,141.38l29.93-4.2c-1.56-2.38-1.59-5.68.25-7.56-4.6-2.28-3.34-11,2.2-11.09,1.43,0,2.89.07,4.31,0a6,6,0,0,1,5,2.16l.76.21c-.07-3.36,2.24-6.64,6.42-5.71,23.89,5.28,48.15,14.3,72.93,11-17-9.39-35.6-14.35-54.81-16.74-7.61-1-6.08-12.76,1.54-11.82,22,2.74,42.71,8.88,62,19.89,5,2.86,2.15,8.91-2.37,10.15a6,6,0,0,1,.42.57,73,73,0,0,1,13.74-7.12c3.44-2.81,6.73-5.88,10.05-9.07,4-3.84,9-9.18,14.64-12-.07-.4-.15-.81-.21-1.22-.71-4.52,3.19-6.93,6.71-6.54a41.76,41.76,0,0,0-8.7-8.86l-.35-.25.27-.34A41.74,41.74,0,0,0,228,32.67L216.39,48.11a37.48,37.48,0,0,1-24.7,14.55l-71.36,10A37.47,37.47,0,0,1,92.57,65.5L77.13,53.86a41.73,41.73,0,0,0-51.47,65.69,52.16,52.16,0,0,1,7,.2,5.26,5.26,0,0,1,4.14,2.4c6-.12,9.22,9,2.7,11.32a33.71,33.71,0,0,1-5.14,1.32,6.77,6.77,0,0,1,.47,1.15c2.53,8.27,2.55,16.32,2,24.39,4.1,4.18,7.59,9.56,10,12.44,4.9,5.94-4.48,13.29-9.35,7.39-.71-.86-1.39-1.73-2.07-2.6,0,.68-.08,1.36-.11,2a41.76,41.76,0,0,0,58.43-8.23" transform="translate(-8.56 -6.53)"/></g></g></g></g><g id="_0912_191" data-name=" 0912 191" class="cls-5"><g class="cls-5"><path class="cls-6" d="M61.58,114.74a6.62,6.62,0,0,1,2.93.15,9.28,9.28,0,0,1,2.71,1.25,8.5,8.5,0,0,1,2.13,2.1,6.46,6.46,0,0,1,1.14,2.7,6.86,6.86,0,0,1-.14,3,8.45,8.45,0,0,1-1.28,2.71A9.27,9.27,0,0,1,67,128.72a6.85,6.85,0,0,1-2.7,1.14,6.71,6.71,0,0,1-3-.15,8.74,8.74,0,0,1-2.74-1.25,8.37,8.37,0,0,1-2.13-2.11,6.69,6.69,0,0,1-1.14-2.73,6.47,6.47,0,0,1,.14-2.93A8.65,8.65,0,0,1,56.71,118a9.17,9.17,0,0,1,2.14-2.12A6.69,6.69,0,0,1,61.58,114.74Zm1.9,10.77a2.77,2.77,0,0,0,1.15-.48,3.88,3.88,0,0,0,.92-.89,3.75,3.75,0,0,0,.57-1.15,2.81,2.81,0,0,0,.07-1.29,2.63,2.63,0,0,0-.5-1.15,4.07,4.07,0,0,0-.94-.91,3.69,3.69,0,0,0-1.17-.55,3.05,3.05,0,0,0-1.24,0,2.85,2.85,0,0,0-1.17.48,3.74,3.74,0,0,0-.94.92,4.15,4.15,0,0,0-.57,1.18,2.73,2.73,0,0,0,.43,2.43,3.62,3.62,0,0,0,.94.89,3.79,3.79,0,0,0,1.18.52A3,3,0,0,0,63.48,125.51Z" transform="translate(-8.56 -6.53)"/><path class="cls-6" d="M87.2,130.65l-2-11.57a11.1,11.1,0,0,1-3.91,1.42,8,8,0,0,1-3.08,0,5.62,5.62,0,0,1-2.32-1.1,6.09,6.09,0,0,1-1.56-2,9.17,9.17,0,0,1-.85-2.59,10.77,10.77,0,0,1,0-3.4,9.48,9.48,0,0,1,1-3.13,7.6,7.6,0,0,1,2.09-2.43,6.8,6.8,0,0,1,3-1.31,6.23,6.23,0,0,1,3.55.29,6.87,6.87,0,0,1,2.68,2A11.64,11.64,0,0,1,87.67,110a20.73,20.73,0,0,1,1.13,4l2.78,15.78Zm-3-16.71a10.24,10.24,0,0,0-.51-1.9,5.55,5.55,0,0,0-.87-1.56,3.46,3.46,0,0,0-1.23-1,2.52,2.52,0,0,0-1.58-.18,2.56,2.56,0,0,0-1.23.54,2.93,2.93,0,0,0-.83,1,3.65,3.65,0,0,0-.4,1.26,4.34,4.34,0,0,0,0,1.3,2.25,2.25,0,0,0,1.07,1.68,3.4,3.4,0,0,0,2.28.24,8.31,8.31,0,0,0,1.77-.5A7.09,7.09,0,0,0,84.24,113.94Z" transform="translate(-8.56 -6.53)"/><path class="cls-6" d="M97.35,128.85l-1.91-10.77c-.31-1.77-.62-3.29-.94-4.56s-.65-2.41-1-3.41-.75-2-1.17-2.83-.86-1.84-1.35-2.85l4-2.31c.59,1.08,1.12,2.14,1.59,3.17a32.8,32.8,0,0,1,1.28,3.25c.38,1.13.74,2.39,1.08,3.76s.66,3,1,4.76l1.94,11Z" transform="translate(-8.56 -6.53)"/><path class="cls-6" d="M112.51,112.74a4.1,4.1,0,0,1-3.2-.53c.15.55.3,1.12.44,1.72s.26,1.24.38,1.92L112,126.27l-4.52.8-1.9-10.77c-.31-1.77-.63-3.3-.94-4.57s-.66-2.4-1-3.41-.75-1.94-1.16-2.83l-1.35-2.85,4-2.31c.44,1,.85,1.88,1.22,2.67s.75,1.6,1.14,2.45c.19.39.4.76.61,1.12a3.74,3.74,0,0,0,.75.9,2.6,2.6,0,0,0,1,.51,3,3,0,0,0,1.3,0,2.69,2.69,0,0,0,1.81-1,2.26,2.26,0,0,0,.39-1.8,31.56,31.56,0,0,0-1.66-5l4.17-1.74c.43,1,.81,2.1,1.13,3.16a23.41,23.41,0,0,1,.73,3,8.63,8.63,0,0,1,0,3,6.94,6.94,0,0,1-.89,2.46,5.6,5.6,0,0,1-1.76,1.8A7,7,0,0,1,112.51,112.74Z" transform="translate(-8.56 -6.53)"/><path class="cls-6" d="M132.72,122.61l-1.91-10.78c-.31-1.77-.62-3.29-.94-4.56s-.65-2.4-1-3.41-.75-2-1.17-2.83-.86-1.84-1.34-2.85l4-2.31C131,97,131.49,98,132,99a32.8,32.8,0,0,1,1.28,3.25c.38,1.13.74,2.39,1.08,3.76s.66,3,1,4.76l1.94,11Z" transform="translate(-8.56 -6.53)"/><path class="cls-6" d="M151.86,119.22l-2-11.57a11.31,11.31,0,0,1-3.91,1.43,7.75,7.75,0,0,1-3.08,0,5.38,5.38,0,0,1-2.32-1.1,6,6,0,0,1-1.56-2,9.27,9.27,0,0,1-.85-2.59,10.21,10.21,0,0,1,0-3.4,9.54,9.54,0,0,1,1.05-3.14,7.68,7.68,0,0,1,2.09-2.42,6.92,6.92,0,0,1,3-1.32,6.41,6.41,0,0,1,3.55.29,7.08,7.08,0,0,1,2.68,2,11.55,11.55,0,0,1,1.87,3.22,21.45,21.45,0,0,1,1.13,4l2.78,15.78Zm-3-16.71a11,11,0,0,0-.51-1.89,5.3,5.3,0,0,0-.88-1.56,3.48,3.48,0,0,0-1.22-1,2.52,2.52,0,0,0-1.58-.17,2.64,2.64,0,0,0-1.23.53,3.07,3.07,0,0,0-.83,1,3.53,3.53,0,0,0-.4,1.25,4.33,4.33,0,0,0,0,1.3,2.29,2.29,0,0,0,1.08,1.69,3.39,3.39,0,0,0,2.28.23,8.07,8.07,0,0,0,1.76-.49A6.59,6.59,0,0,0,148.91,102.51Z" transform="translate(-8.56 -6.53)"/><path class="cls-6" d="M162,117.43l-1.91-10.77c-.31-1.77-.63-3.29-.94-4.57s-.65-2.4-1-3.4-.75-2-1.17-2.84S156.13,94,155.64,93l4-2.31c.59,1.09,1.12,2.15,1.59,3.17a33.8,33.8,0,0,1,1.28,3.25c.38,1.14.74,2.39,1.08,3.77s.66,3,1,4.76l1.95,11Z" transform="translate(-8.56 -6.53)"/><path class="cls-6" d="M183.88,91.63a6.28,6.28,0,0,0-1.53-.21,7.71,7.71,0,0,0-1.42.09,3.47,3.47,0,0,0-2.24,1.26,3,3,0,0,0,.63,4.23,3.22,3.22,0,0,0,2.47.39,10,10,0,0,0,2.57-.84A18,18,0,0,0,186.94,95l2.8,2.89a48.86,48.86,0,0,0-4.83,7.82,82.52,82.52,0,0,0-3.7,8.81l-4.23-1.9q1.16-3,2.51-5.86a43.58,43.58,0,0,1,3-5.26,8.49,8.49,0,0,1-1.58.23,9.84,9.84,0,0,1-1.44,0,6,6,0,0,1-4-1.84,7.64,7.64,0,0,1-1.8-3.82,8.51,8.51,0,0,1,0-3,8.16,8.16,0,0,1,1-2.79,7.31,7.31,0,0,1,2-2.18,6.64,6.64,0,0,1,2.85-1.19,11.12,11.12,0,0,1,2.3-.15,11.48,11.48,0,0,1,2.7.5Z" transform="translate(-8.56 -6.53)"/><path class="cls-6" d="M203.6,101.58c0-1.67,0-3.27.11-4.79a40.69,40.69,0,0,1,.47-4.61,41.72,41.72,0,0,1,1.06-4.85,53.06,53.06,0,0,1,1.9-5.53l4.19,1.69q-1.19,3.18-2.05,6a54.14,54.14,0,0,0-1.44,5.84,61.93,61.93,0,0,0-.85,6.43c-.19,2.29-.3,4.88-.34,7.79l-3.15.55c-1-2.71-2-5.11-3-7.19s-2-4-3-5.75a55.48,55.48,0,0,0-3.33-5c-1.18-1.58-2.5-3.22-4-5l3.31-3a51.45,51.45,0,0,1,3.68,4.53c1,1.43,1.91,2.82,2.69,4.19a38.1,38.1,0,0,1,2,4.17C202.48,98.51,203,100,203.6,101.58Z" transform="translate(-8.56 -6.53)"/><path class="cls-6" d="M224.78,87.69c0,1.68,0,3.27-.08,4.77a38.49,38.49,0,0,1-.49,4.59c-.26,1.55-.62,3.18-1.08,4.88a49.51,49.51,0,0,1-1.9,5.54l-4.15-1.73c.79-2.09,1.47-4.09,2-6a58,58,0,0,0,1.42-5.85c.37-2,.67-4.14.87-6.42s.33-4.86.37-7.77l3.15-.55c1,2.71,2,5.1,3,7.17a63.57,63.57,0,0,0,3,5.73,53.91,53.91,0,0,0,3.35,5c1.2,1.59,2.52,3.23,4,4.92l-3.35,3.06a48.8,48.8,0,0,1-3.68-4.56,44.2,44.2,0,0,1-2.67-4.21,42.63,42.63,0,0,1-2-4.15Q225.65,90.06,224.78,87.69Z" transform="translate(-8.56 -6.53)"/><path class="cls-6" d="M252.37,77.68a23.41,23.41,0,0,1,.73,2.95,5,5,0,0,1,.07.54,3.4,3.4,0,0,1,0,.64,3.21,3.21,0,0,0,1.25.6,3.15,3.15,0,0,0,1.25.06,2.56,2.56,0,0,0,1.78-1,2.32,2.32,0,0,0,.38-1.71,29.9,29.9,0,0,0-1.63-5.06l4.13-1.74a31.74,31.74,0,0,1,1.11,3.19,30.28,30.28,0,0,1,.72,3,8.57,8.57,0,0,1,0,2.85,6.68,6.68,0,0,1-.88,2.42,6,6,0,0,1-1.74,1.82,6.37,6.37,0,0,1-2.5,1,7,7,0,0,1-2.49,0A6.22,6.22,0,0,1,252.09,86a5.83,5.83,0,0,1-1.69,1.83,6.35,6.35,0,0,1-2.48,1,4.05,4.05,0,0,1-3.2-.54c.16.56.3,1.13.44,1.73s.26,1.24.38,1.92l1.84,10.42-4.52.8L241,92.38c-.31-1.78-.63-3.3-.94-4.57s-.66-2.4-1-3.41-.74-1.94-1.16-2.83l-1.35-2.85,4-2.31,1.22,2.67c.37.78.75,1.6,1.14,2.44.19.4.4.77.61,1.13a3.55,3.55,0,0,0,.76.9,2.49,2.49,0,0,0,1,.51,3,3,0,0,0,1.3,0,2.69,2.69,0,0,0,1.81-1,2.26,2.26,0,0,0,.39-1.8,31.56,31.56,0,0,0-1.66-5l4.17-1.74C251.67,75.57,252.05,76.62,252.37,77.68Z" transform="translate(-8.56 -6.53)"/></g></g></g></svg>