<?xml version="1.0" encoding="utf-8"?>
<!-- Generator: Adobe Illustrator 25.2.3, SVG Export Plug-In . SVG Version: 6.00 Build 0)  -->
<svg version="1.1" id="Layer_1" xmlns="http://www.w3.org/2000/svg" xmlns:xlink="http://www.w3.org/1999/xlink" x="0px" y="0px"
	 viewBox="0 0 1922 635.1" style="enable-background:new 0 0 1922 635.1;" xml:space="preserve">
<style type="text/css">
	.st0{fill:#FFFFFF;}
</style>
<path id="Subtraction_2" class="st0" d="M58.9,634.6c-18.9,0-38.5-0.2-58.4-0.5V0.5h1921v246.4c-21.1,8.8-43,16.9-65.3,23.9
	c-21.7,6.8-44.4,13-67.5,18.2c-21.9,5-44.9,9.3-68.5,12.9c-42.5,6.5-88.2,10.9-139.8,13.4c-51.9,2.5-103.8,2.9-143.3,2.9
	c-22.3,0-45-0.1-67-0.2h-0.2h-0.4h-0.3h-0.7c-13.2-0.1-26.9-0.1-40.4-0.2c-0.7,0-1.4,0-2.1,0c-21.2,0-42.8,1.1-64.2,3.2
	c-20.4,2-41.3,5.1-62,9c-19.7,3.7-39.9,8.5-60.2,14c-19,5.2-38.7,11.3-58.7,18.2c-18.6,6.4-37.3,13.4-57.4,21.5
	c-17.9,7.2-36.3,15-56.5,24c-37.4,16.6-75,34.6-111.3,52l0,0l-0.1,0.1l0,0c-27,12.9-54.9,26.3-82.4,38.9
	c-31,14.2-58.3,26.1-83.5,36.2c-23.9,9.6-48.8,18.6-74.2,26.8c-24.6,7.9-50.2,15.3-76.2,21.9c-25.1,6.4-51.4,12.2-77.9,17.4
	c-25.6,5-52.2,9.4-79.3,13.3c-25.9,3.7-52.9,6.9-80.2,9.6c-26.1,2.6-53.3,4.7-80.8,6.3c-26.2,1.6-53.4,2.7-81.1,3.5
	C113.8,634.2,86.6,634.6,58.9,634.6z"/>
</svg>
