<svg xmlns="http://www.w3.org/2000/svg" width="71.516" height="71.516" viewBox="0 0 71.516 71.516">
  <g id="Group_82" data-name="Group 82" transform="translate(-396.284 -856.18)">
    <path id="Vector" d="M71.516,35.758A35.758,35.758,0,1,1,35.758,0,35.758,35.758,0,0,1,71.516,35.758Z" transform="translate(396.284 856.18)" fill="#a85454"/>
    <g id="frame" transform="translate(404.436 863.686)">
      <path id="Vector-2" data-name="Vector" d="M44.452,13.208C39.117,4.826,31.312,0,23.092,0A22.358,22.358,0,0,0,11.338,3.441a30.836,30.836,0,0,0-9.606,9.768,13.326,13.326,0,0,0,0,13.139c5.334,8.405,13.139,13.208,21.36,13.208a22.358,22.358,0,0,0,11.754-3.441,30.836,30.836,0,0,0,9.606-9.768A13.326,13.326,0,0,0,44.452,13.208Zm-21.36,15.91a9.329,9.329,0,1,1,9.329-9.329A9.318,9.318,0,0,1,23.092,29.119Z" transform="translate(4.618 7.92)" fill="#fff"/>
      <path id="Vector-3" data-name="Vector" d="M6.581,0a6.593,6.593,0,1,0,6.6,6.6A6.6,6.6,0,0,0,6.581,0Z" transform="translate(21.129 21.106)" fill="#fff" opacity="0.41"/>
      <path id="Vector-4" data-name="Vector" d="M0,0H55.42V55.42H0Z" fill="none" opacity="0"/>
    </g>
  </g>
</svg>
