<svg width="104" height="104" viewBox="0 0 104 104" fill="none" xmlns="http://www.w3.org/2000/svg">
<path d="M52 91C61.0229 91 69.7666 87.8714 76.7413 82.1474C83.7161 76.4234 88.4904 68.458 90.2506 59.6085C92.0109 50.759 90.6483 41.573 86.3949 33.6155C82.1416 25.6581 75.2607 19.4216 66.9247 15.9687C58.5886 12.5158 49.3132 12.0601 40.6789 14.6793C32.0446 17.2985 24.5855 22.8305 19.5727 30.3328C14.5599 37.835 12.3034 46.8432 13.1878 55.8227C14.0722 64.8021 18.0427 73.197 24.4228 79.5772" stroke="#209224" stroke-width="7" stroke-linecap="round"/>
<path d="M69.333 43.3333L49.0684 67.6509C48.4128 68.4376 48.085 68.8309 47.6445 68.8509C47.2039 68.8709 46.8418 68.5088 46.1177 67.7847L34.6663 56.3333" stroke="#209224" stroke-width="7" stroke-linecap="round"/>
</svg>
